HIERARCHY
ROOT Hips
{
	OFFSET 0.00000 0.00000 0.00000
	CHANNELS 6 Xposition Yposition Zposition Zrotation Yrotation Xrotation 
	JOINT LHipJoint
	{
		OFFSET 0 0 0
		CHANNELS 3 Zrotation Yrotation Xrotation
		JOINT LeftUpLeg
		{
			OFFSET 1.56857 -1.73443 1.15205
			CHANNELS 3 Zrotation Yrotation Xrotation
			JOINT LeftLeg
			{
				OFFSET 2.39362 -6.57643 0.00000
				CHANNELS 3 Zrotation Yrotation Xrotation
				JOINT LeftFoot
				{
					OFFSET 2.50952 -6.89485 0.00000
					CHANNELS 3 Zrotation Yrotation Xrotation
					JOINT LeftToeBase
					{
						OFFSET 0.17171 -0.47178 1.88682
						CHANNELS 3 Zrotation Yrotation Xrotation
						End Site
						{
							OFFSET 0.00000 -0.00000 0.98146
						}
					}
				}
			}
		}
	}
	JOINT RHipJoint
	{
		OFFSET 0 0 0
		CHANNELS 3 Zrotation Yrotation Xrotation
		JOINT RightUpLeg
		{
			OFFSET -1.28153 -1.73443 1.15205
			CHANNELS 3 Zrotation Yrotation Xrotation
			JOINT RightLeg
			{
				OFFSET -2.26861 -6.23296 0.00000
				CHANNELS 3 Zrotation Yrotation Xrotation
				JOINT RightFoot
				{
					OFFSET -2.54143 -6.98254 0.00000
					CHANNELS 3 Zrotation Yrotation Xrotation
					JOINT RightToeBase
					{
						OFFSET -0.23309 -0.64041 1.93119
						CHANNELS 3 Zrotation Yrotation Xrotation
						End Site
						{
							OFFSET -0.00000 -0.00000 1.02013
						}
					}
				}
			}
		}
	}
	JOINT LowerBack
	{
		OFFSET 0 0 0
		CHANNELS 3 Zrotation Yrotation Xrotation
		JOINT Spine
		{
			OFFSET -0.07096 2.10460 -0.27878
			CHANNELS 3 Zrotation Yrotation Xrotation
			JOINT Spine1
			{
				OFFSET -0.00826 2.13662 -0.08279
				CHANNELS 3 Zrotation Yrotation Xrotation
				JOINT Neck
				{
					OFFSET 0 0 0
					CHANNELS 3 Zrotation Yrotation Xrotation
					JOINT Neck1
					{
						OFFSET 0.03239 1.77799 0.24435
						CHANNELS 3 Zrotation Yrotation Xrotation
						JOINT Head
						{
							OFFSET 0.01026 1.74194 -0.49664
							CHANNELS 3 Zrotation Yrotation Xrotation
							End Site
							{
								OFFSET 0.00170 1.83057 -0.19653
							}
						}
					}
				}
				JOINT LeftShoulder
				{
					OFFSET 0 0 0
					CHANNELS 3 Zrotation Yrotation Xrotation
					JOINT LeftArm
					{
						OFFSET 3.19178 1.35907 -0.31412
						CHANNELS 3 Zrotation Yrotation Xrotation
						JOINT LeftForeArm
						{
							OFFSET 4.85247 -0.00000 -0.00000
							CHANNELS 3 Zrotation Yrotation Xrotation
							JOINT LeftHand
							{
								OFFSET 3.55584 -0.00000 0.00000
								CHANNELS 3 Zrotation Yrotation Xrotation
								JOINT LeftFingerBase
								{
									OFFSET 0 0 0
									CHANNELS 3 Zrotation Yrotation Xrotation
									JOINT LeftHandIndex1
									{
										OFFSET 0.69320 -0.00000 0.00000
										CHANNELS 3 Zrotation Yrotation Xrotation
										End Site
										{
											OFFSET 0.55888 -0.00000 0.00000
										}
									}
								}
								JOINT LThumb
								{
									OFFSET 0 0 0
									CHANNELS 3 Zrotation Yrotation Xrotation
									End Site
									{
										OFFSET 0.56741 -0.00000 0.56741
									}
								}
							}
						}
					}
				}
				JOINT RightShoulder
				{
					OFFSET 0 0 0
					CHANNELS 3 Zrotation Yrotation Xrotation
					JOINT RightArm
					{
						OFFSET -3.28999 1.24191 -0.26899
						CHANNELS 3 Zrotation Yrotation Xrotation
						JOINT RightForeArm
						{
							OFFSET -4.64462 -0.00000 0.00000
							CHANNELS 3 Zrotation Yrotation Xrotation
							JOINT RightHand
							{
								OFFSET -3.40703 -0.00000 0.00000
								CHANNELS 3 Zrotation Yrotation Xrotation
								JOINT RightFingerBase
								{
									OFFSET 0 0 0
									CHANNELS 3 Zrotation Yrotation Xrotation
									JOINT RightHandIndex1
									{
										OFFSET -0.61958 -0.00000 0.00000
										CHANNELS 3 Zrotation Yrotation Xrotation
										End Site
										{
											OFFSET -0.49952 -0.00000 0.00000
										}
									}
								}
								JOINT RThumb
								{
									OFFSET 0 0 0
									CHANNELS 3 Zrotation Yrotation Xrotation
									End Site
									{
										OFFSET -0.50715 -0.00000 0.50715
									}
								}
							}
						}
					}
				}
			}
		}
	}
}
MOTION
Frames: 14
Frame Time: .0083333
-29.6922 17.0441 1.1145 0 0 0 0 0 0 -21 0 0 0 0 0 0 0 0 0 0 0 0 0 0 21 0 0 0 0 0 0 0 0 0 0 0 0 0 0 0 0 0 0 0 0 0 0 -16 0 0 21 0 0 11 0 0 0 -8 0 0 0 0 0 0 0 0 0 0 0 0 0 0 0 0 0 0 0 0 8 0 0 0 0 0 0 0 0 0 0 0 0 0 0 0 0 0
-29.6922 17.0441 1.1145 55.1717 84.4240 55.1327 0.0000 0.0000 0.0000 -17.4652 1.9055 12.1370 0.0371 -1.2427 -3.4170 0.0033 10.9829 -15.6845 0.6687 -5.2295 -14.5643 0.0000 0.0000 0.0000 5.5363 -4.9538 7.0513 -0.0126 -0.7245 1.9910 -0.4806 5.4696 -12.3699 -0.0043 -0.4214 1.1580 -5.6008 1.6139 3.8239 -1.5414 1.9179 0.4495 1.4453 1.0049 -1.8113 4.5959 2.3039 -21.6342 -2.8977 2.4644 20.0638 -1.4123 1.1702 10.0588 0.0000 -0.0000 0.0000 -86.3586 -0.0675 37.5734 11.2636 -18.6912 -1.8595 -0.0000 -0.0000 17.5201 14.3107 -23.6218 -5.8363 -7.1250 0.0000 -0.0000 -9.2076 5.9500 8.3141 0.0000 -0.0000 0.0000 86.9597 -3.9451 35.1431 -16.5619 26.2766 -3.8914 0.0000 0.0000 5.7866 -10.6850 -31.2350 5.5880 7.1250 -0.0000 -0.0000 24.1718 -60.0026 -9.1688
-29.6926 17.0447 1.1146 54.8833 84.4017 54.8173 0.0000 0.0000 0.0000 -17.2961 2.4071 11.8880 0.0329 -1.1702 -3.2172 0.0230 10.5384 -15.3556 0.6987 -5.3431 -14.8898 0.0000 0.0000 0.0000 5.5460 -4.9190 7.0819 -0.0134 -0.7466 2.0518 -0.4890 5.4723 -12.4757 -0.0080 -0.5779 1.5880 -5.6147 1.6205 3.8473 -1.5264 1.9242 0.4452 1.4673 1.0086 -1.8303 4.5109 2.3040 -21.6777 -2.7917 2.4663 20.1308 -1.3604 1.1775 10.0882 0.0000 0.0000 0.0000 -86.3135 -0.1112 37.7347 11.2068 -18.6045 -1.8414 -0.0000 -0.0000 17.4040 14.0434 -23.7807 -5.7595 -7.1250 0.0000 -0.0000 -9.3811 5.8249 8.4979 0.0000 0.0000 0.0000 86.9042 -3.9712 35.2234 -16.6199 26.3539 -3.9171 0.0000 0.0000 5.7733 -10.7800 -31.6495 5.7053 7.1250 -0.0000 -0.0000 24.4263 -60.3982 -9.5045
-29.6933 17.0441 1.1152 54.2343 84.3516 54.1986 0.0000 0.0000 0.0000 -17.2664 2.5256 11.8400 0.0332 -1.1765 -3.2345 0.0253 10.5143 -15.3568 0.6632 -5.2085 -14.5041 0.0000 0.0000 0.0000 5.5426 -4.9213 6.9822 -0.0147 -0.7826 2.1507 -0.4850 5.5802 -12.4333 -0.0085 -0.5953 1.6357 -5.6418 1.6421 3.7925 -1.5246 1.9560 0.4454 1.4840 1.0239 -1.8025 4.5492 2.3245 -21.8356 -2.8086 2.4831 20.2915 -1.3700 1.1860 10.1762 -0.0000 0.0000 0.0000 -86.3004 -0.0664 37.6183 11.3109 -18.7633 -1.8747 -0.0000 -0.0000 17.5409 13.8970 -23.7692 -5.6949 -7.1250 0.0000 -0.0000 -9.4708 5.8552 8.5760 -0.0000 0.0000 0.0000 86.8709 -3.9569 35.2674 -16.6743 26.4264 -3.9413 0.0000 0.0000 5.6798 -10.7970 -31.8885 5.7528 7.1250 -0.0000 -0.0000 24.6164 -60.6168 -9.7129
-29.6931 17.0423 1.1160 54.2490 84.3467 54.2590 0.0000 0.0000 0.0000 -17.4034 2.1284 12.0527 0.0382 -1.2613 -3.4682 0.0270 10.7974 -15.7725 0.5510 -4.7551 -13.2113 0.0000 0.0000 0.0000 5.5370 -4.9275 6.9164 -0.0143 -0.7729 2.1241 -0.4761 5.6212 -12.3256 -0.0080 -0.5765 1.5841 -5.6623 1.6471 3.7216 -1.5370 1.9665 0.4349 1.4840 1.0289 -1.7746 4.6600 2.3092 -21.9172 -2.9345 2.4575 20.4386 -1.4373 1.1684 10.2463 0.0000 -0.0000 0.0000 -86.2707 -0.1000 37.6350 11.3172 -18.7728 -1.8767 -0.0000 -0.0000 17.6299 14.0308 -23.8440 -5.7685 -7.1250 0.0000 -0.0000 -9.3920 5.7630 8.5194 0.0000 -0.0000 0.0000 86.8825 -3.9384 35.1932 -16.6870 26.4434 -3.9470 0.0000 0.0000 5.5890 -10.6390 -31.9049 5.6698 7.1250 -0.0000 -0.0000 24.7952 -60.5940 -9.7750
-29.6935 17.0421 1.1168 54.4619 84.4055 54.4574 0.0000 0.0000 0.0000 -17.1957 2.5179 11.7836 0.0336 -1.1840 -3.2551 0.0594 10.2703 -15.5316 0.5456 -4.7321 -13.1461 0.0000 0.0000 0.0000 5.6106 -4.9038 6.9895 -0.0131 -0.7393 2.0318 -0.4768 5.5292 -12.3266 -0.0065 -0.5214 1.4328 -5.6681 1.6066 3.7441 -1.4867 1.9100 0.4231 1.5414 1.0012 -1.7975 4.6326 2.3175 -21.9757 -3.0276 2.5043 20.5723 -1.4593 1.1770 10.3081 -0.0000 0.0000 0.0000 -86.3527 -0.0879 37.4234 11.2998 -18.7464 -1.8711 -0.0000 -0.0000 17.8880 14.1886 -23.9930 -5.8697 -7.1250 0.0000 -0.0000 -9.3024 5.5932 8.4664 -0.0000 0.0000 0.0000 86.7906 -3.9321 35.3169 -16.6938 26.4524 -3.9500 0.0000 0.0000 5.4914 -10.6618 -31.8992 5.6812 7.1250 -0.0000 -0.0000 24.7665 -60.5943 -9.7631
-29.6948 17.0427 1.1175 54.2964 84.4411 54.2671 0.0000 0.0000 0.0000 -16.9938 2.9119 11.5301 0.0289 -1.0971 -3.0159 0.0745 9.8834 -15.2433 0.5925 -4.9282 -13.7039 0.0000 0.0000 0.0000 5.6852 -4.8716 7.0399 -0.0128 -0.7306 2.0078 -0.4807 5.4574 -12.3704 -0.0041 -0.4119 1.1317 -5.6828 1.5792 3.7842 -1.4301 1.8696 0.4168 1.6088 0.9818 -1.8260 4.7017 2.3477 -22.0581 -3.2092 2.5691 20.6764 -1.5260 1.1900 10.3673 -0.0000 -0.0000 0.0000 -86.4497 -0.0675 37.1881 11.3055 -18.7550 -1.8730 -0.0000 -0.0000 18.0576 14.1564 -24.0591 -5.8710 -7.1250 0.0000 -0.0000 -9.3258 5.5311 8.4995 -0.0000 -0.0000 0.0000 86.7006 -3.8958 35.3819 -16.6617 26.4096 -3.9357 0.0000 0.0000 5.4154 -10.7247 -31.7367 5.6894 7.1250 -0.0000 -0.0000 24.5591 -60.4633 -9.5984
-29.6940 17.0433 1.1171 54.1980 84.4288 54.1533 0.0000 0.0000 0.0000 -17.0107 2.8795 11.5792 0.0293 -1.1050 -3.0379 0.0827 9.8971 -15.3827 0.5507 -4.7540 -13.2081 0.0000 0.0000 0.0000 5.6755 -4.8584 7.0559 -0.0129 -0.7341 2.0176 -0.4843 5.4893 -12.4182 -0.0033 -0.3725 1.0235 -5.6953 1.5757 3.7733 -1.4238 1.8658 0.4266 1.6230 0.9794 -1.8101 4.7569 2.3780 -22.1744 -3.2391 2.5959 20.7440 -1.5416 1.2022 10.4156 -0.0000 -0.0000 0.0000 -86.4229 -0.0598 37.3252 11.3492 -18.8215 -1.8870 -0.0000 -0.0000 17.8948 14.1808 -24.0471 -5.8788 -7.1250 0.0000 -0.0000 -9.3101 5.5399 8.4831 -0.0000 -0.0000 0.0000 86.6857 -3.8333 35.3225 -16.6064 26.3359 -3.9111 0.0000 0.0000 5.4313 -10.6461 -31.5815 5.6224 7.1250 -0.0000 -0.0000 24.5067 -60.3054 -9.4835
-29.6926 17.0433 1.1158 54.2351 84.4076 54.2013 0.0000 0.0000 0.0000 -17.2003 2.4897 11.8240 0.0328 -1.1690 -3.2139 0.0683 10.2404 -15.6208 0.5216 -4.6288 -12.8527 0.0000 0.0000 0.0000 5.6280 -4.8987 7.0235 -0.0132 -0.7420 2.0392 -0.4844 5.5437 -12.4236 -0.0034 -0.3767 1.0350 -5.7014 1.5673 3.7211 -1.4323 1.8589 0.4394 1.6198 0.9748 -1.7670 4.6604 2.4162 -22.2937 -3.0629 2.6315 20.7978 -1.4566 1.2314 10.4547 0.0000 -0.0000 0.0000 -86.3856 -0.0974 37.3998 11.3668 -18.8484 -1.8927 -0.0000 -0.0000 17.9115 14.1832 -24.0553 -5.8816 -7.1250 0.0000 -0.0000 -9.3092 5.5315 8.4838 0.0000 -0.0000 0.0000 86.6816 -3.8008 35.4640 -16.6283 26.3651 -3.9208 0.0000 0.0000 5.5714 -10.7119 -32.0260 5.7285 7.1250 -0.0000 -0.0000 24.8261 -60.7198 -9.8629
-29.6930 17.0432 1.1163 54.3676 84.4005 54.3427 0.0000 0.0000 0.0000 -17.3510 2.1581 12.0192 0.0356 -1.2184 -3.3501 0.0327 10.6318 -15.6286 0.5777 -4.8672 -13.5302 0.0000 0.0000 0.0000 5.6244 -4.8760 7.0336 -0.0130 -0.7359 2.0223 -0.4867 5.4812 -12.4469 -0.0058 -0.4935 1.3559 -5.7220 1.5708 3.7079 -1.4391 1.8635 0.4351 1.6243 0.9773 -1.7649 4.5674 2.4039 -22.2796 -2.9553 2.6192 20.7950 -1.4046 1.2318 10.4476 -0.0000 0.0000 0.0000 -86.3720 -0.1443 37.3558 11.3556 -18.8312 -1.8891 -0.0000 -0.0000 18.0840 14.2125 -24.2604 -5.9411 -7.1250 0.0000 -0.0000 -9.3021 5.3218 8.5147 -0.0000 0.0000 0.0000 86.7127 -3.7456 35.2302 -16.5478 26.2577 -3.8851 0.0000 0.0000 5.6094 -10.6215 -31.6896 5.6263 7.1250 -0.0000 -0.0000 24.6254 -60.3967 -9.5868
-29.6936 17.0431 1.1189 54.2524 84.3361 54.2297 0.0000 0.0000 0.0000 -17.3792 2.2233 12.0079 0.0359 -1.2235 -3.3639 0.0178 10.7224 -15.5342 0.5998 -4.9577 -13.7879 0.0000 0.0000 0.0000 5.5742 -4.8834 6.9989 -0.0138 -0.7579 2.0828 -0.4892 5.5378 -12.4825 -0.0073 -0.5526 1.5184 -5.7969 1.6005 3.7127 -1.4513 1.8991 0.4192 1.6509 0.9966 -1.7885 4.5313 2.3780 -22.2246 -2.9125 2.5866 20.7669 -1.3884 1.2197 10.4247 -0.0000 0.0000 0.0000 -86.3410 -0.1280 37.4615 11.3737 -18.8587 -1.8949 -0.0000 -0.0000 18.0444 14.4115 -24.4741 -6.0767 -7.1250 0.0000 -0.0000 -9.1919 5.0811 8.4535 -0.0000 0.0000 0.0000 86.7358 -3.7474 35.2749 -16.5393 26.2464 -3.8814 0.0000 0.0000 5.5744 -10.8081 -31.7780 5.7411 7.1250 -0.0000 -0.0000 24.5084 -60.5203 -9.6105
-29.6923 17.0440 1.1195 53.8046 84.2481 53.7651 0.0000 0.0000 0.0000 -17.6126 1.7964 12.3775 0.0426 -1.3325 -3.6643 -0.0143 11.2714 -15.8368 0.5224 -4.6319 -12.8617 0.0000 0.0000 0.0000 5.4891 -4.9480 6.9306 -0.0153 -0.7976 2.1921 -0.4841 5.7009 -12.4311 -0.0048 -0.4490 1.2336 -5.8643 1.6080 3.6761 -1.4417 1.9102 0.4360 1.6990 1.0015 -1.7539 4.5501 2.4020 -22.1771 -2.9646 2.6267 20.6933 -1.4040 1.2329 10.3920 -0.0000 -0.0000 0.0000 -86.3766 -0.1529 37.4879 11.3690 -18.8517 -1.8934 -0.0000 -0.0000 17.9684 14.6654 -24.4924 -6.1920 -7.1250 0.0000 -0.0000 -9.0372 5.0287 8.3167 -0.0000 -0.0000 0.0000 86.6822 -3.7604 35.4481 -16.5844 26.3067 -3.9014 0.0000 0.0000 5.5030 -10.8257 -31.9881 5.7843 7.1250 -0.0000 -0.0000 24.6743 -60.7131 -9.7943
-29.6914 17.0451 1.1184 53.4182 84.2497 53.3383 0.0000 0.0000 0.0000 -17.6133 1.7420 12.5029 0.0451 -1.3709 -3.7700 -0.0234 11.3535 -15.8204 0.5306 -4.6677 -12.9631 0.0000 0.0000 0.0000 5.5238 -4.8971 6.9890 -0.0147 -0.7835 2.1532 -0.4782 5.7406 -12.3611 -0.0062 -0.5076 1.3948 -5.8685 1.5835 3.6181 -1.3963 1.8844 0.4876 1.7522 0.9856 -1.6678 4.5708 2.4313 -22.0378 -3.0412 2.6799 20.4935 -1.4265 1.2491 10.2978 0.0000 -0.0000 0.0000 -86.4431 -0.2602 37.5117 11.3272 -18.7881 -1.8800 -0.0000 -0.0000 17.8645 14.8800 -24.4291 -6.2709 -7.1250 0.0000 -0.0000 -8.9019 5.0632 8.1831 0.0000 -0.0000 0.0000 86.6114 -3.7260 35.5225 -16.6115 26.3428 -3.9134 0.0000 0.0000 5.4846 -10.6962 -32.0996 5.7317 7.1250 -0.0000 -0.0000 24.9078 -60.7819 -9.9348
-29.6934 17.0445 1.1208 53.5033 84.3351 53.4528 0.0000 0.0000 0.0000 -17.1496 2.6773 11.8412 0.0347 -1.2025 -3.3063 0.0279 10.3729 -15.2024 0.6299 -5.0783 -14.1321 0.0000 0.0000 0.0000 5.6408 -4.8881 6.9952 -0.0138 -0.7586 2.0848 -0.4761 5.7311 -12.3349 -0.0070 -0.5414 1.4876 -5.8286 1.5636 3.6648 -1.3809 1.8523 0.4201 1.7451 0.9725 -1.7608 4.6281 2.4313 -21.9551 -3.0660 2.6691 20.4306 -1.4466 1.2462 10.2608 0.0000 -0.0000 0.0000 -86.4082 -0.2305 37.6917 11.2872 -18.7272 -1.8671 -0.0000 -0.0000 17.7509 14.9833 -24.3284 -6.2919 -7.1250 0.0000 -0.0000 -8.8324 5.1506 8.1028 0.0000 -0.0000 0.0000 86.6547 -3.7842 35.4718 -16.5807 26.3017 -3.8997 0.0000 0.0000 5.4832 -10.6987 -32.0580 5.7264 7.1250 -0.0000 -0.0000 24.8682 -60.7453 -9.8960
